<svg xmlns="http://www.w3.org/2000/svg" width="90" height="27" viewBox="0 0 90 27" role="presentation" fill="white" fill-rule="nonzero" stroke="none" stroke-width="1" stroke-linecap="butt" stroke-linejoin="miter" aria-label="btse icon">
  <defs>
    <linearGradient id="GoldenGradient" gradientTransform="rotate(48)">
      <stop offset="0%" stop-color="#c0b4a7"></stop>
      <stop offset="26%" stop-color="#f8f0e7"></stop>
      <stop offset="100%" stop-color="#b3a391"></stop>
    </linearGradient>
  </defs>
  <path d="M67.953 25.487h21.499l-2.587-6.008H75.286v-4.041h8.991V9.867h-8.99v-3.86h11.575L89.457.04 67.953 0zM22.554 0l2.312 5.887h4.988v19.6h6.829v-19.6h5.065L44.058 0zM11.932 19.622c2.033 0 3.204-.816 3.204-2.27v-.07c0-1.348-1.034-2.234-3.273-2.234H6.764v4.574h5.168zm-.965-9.396c2.033 0 3.17-.71 3.17-2.163v-.071c0-1.347-1.034-2.128-3.032-2.128h-4.34v4.362h4.202zM43.983 21.403l3.756-4.541c2.4 1.936 5.077 2.957 7.894 2.957 1.809 0 2.783-.634 2.783-1.69v-.07c0-1.02-.8-1.584-4.104-2.359-5.182-1.196-9.181-2.675-9.181-7.744v-.07C45.13 3.308 48.713 0 54.555 0c4.139 0 7.373 1.127 10.016 3.274l-3.373 4.823c-2.226-1.585-4.66-2.43-6.817-2.43-1.634 0-2.434.705-2.434 1.585v.07c0 1.127.835 1.62 4.208 2.394 5.6 1.232 9.077 3.062 9.077 7.674v.07c0 5.035-3.93 8.027-9.842 8.027-4.312 0-8.416-1.373-11.407-4.084zM.253.333h12.368c3.031 0 5.167.78 6.58 2.234.964.993 1.55 2.305 1.55 4.007v.07c0 2.873-1.585 4.574-3.72 5.532 2.928.993 4.788 2.695 4.788 6.063v.071c0 4.255-3.376 6.844-9.13 6.844H.254V.334z"></path>
</svg>